<mxfile host="app.diagrams.net" modified="2020-08-16T06:49:53.641Z" agent="5.0 (Windows NT 10.0; Win64; x64) AppleWebKit/537.36 (KHTML, like Gecko) Chrome/84.0.4147.125 Safari/537.36" etag="fyCOq79fpcls_pjQFdmM" version="13.6.2" type="github">
  <diagram id="s64uWzQ2gAf_Oj6svmaC" name="Page-1">
    <mxGraphModel dx="1038" dy="624" grid="1" gridSize="10" guides="1" tooltips="1" connect="1" arrows="1" fold="1" page="1" pageScale="1" pageWidth="850" pageHeight="1100" math="0" shadow="0">
      <root>
        <mxCell id="0" />
        <mxCell id="1" parent="0" />
        <mxCell id="A2H2rxIlcoh9_1_Jdzxk-1" value="" style="shape=image;html=1;verticalAlign=top;verticalLabelPosition=bottom;labelBackgroundColor=#ffffff;imageAspect=0;aspect=fixed;image=https://cdn0.iconfinder.com/data/icons/call-center-and-service/32/44-Antenna-128.png" vertex="1" parent="1">
          <mxGeometry x="80" y="40" width="128" height="128" as="geometry" />
        </mxCell>
        <mxCell id="A2H2rxIlcoh9_1_Jdzxk-2" value="" style="shape=image;html=1;verticalAlign=top;verticalLabelPosition=bottom;labelBackgroundColor=#ffffff;imageAspect=0;aspect=fixed;image=https://cdn0.iconfinder.com/data/icons/media-technology-1/512/satellite-128.png" vertex="1" parent="1">
          <mxGeometry x="297" y="80" width="128" height="128" as="geometry" />
        </mxCell>
        <mxCell id="A2H2rxIlcoh9_1_Jdzxk-3" value="" style="shape=image;html=1;verticalAlign=top;verticalLabelPosition=bottom;labelBackgroundColor=#ffffff;imageAspect=0;aspect=fixed;image=https://cdn2.iconfinder.com/data/icons/web-development-and-studio/512/44_satellite_antenna_radar_space_dish_space-128.png" vertex="1" parent="1">
          <mxGeometry x="150" y="280" width="128" height="128" as="geometry" />
        </mxCell>
        <mxCell id="A2H2rxIlcoh9_1_Jdzxk-4" value="" style="shape=mxgraph.cisco.wireless.antenna;html=1;dashed=0;fillColor=#036897;strokeColor=#ffffff;strokeWidth=2;verticalLabelPosition=bottom;verticalAlign=top" vertex="1" parent="1">
          <mxGeometry x="381" y="280" width="88" height="104" as="geometry" />
        </mxCell>
        <mxCell id="A2H2rxIlcoh9_1_Jdzxk-5" value="" style="shape=mxgraph.cisco.misc.stb;html=1;dashed=0;fillColor=#036897;strokeColor=#ffffff;strokeWidth=2;verticalLabelPosition=bottom;verticalAlign=top" vertex="1" parent="1">
          <mxGeometry x="570" y="100" width="86" height="37" as="geometry" />
        </mxCell>
      </root>
    </mxGraphModel>
  </diagram>
</mxfile>
